<svg id="Layer_8" data-name="Layer 8" xmlns="http://www.w3.org/2000/svg" viewBox="0 0 1035.64 1187.33"><defs><style>.cls-1,.cls-17{fill:none;stroke:#112f60;stroke-width:20px;}.cls-1{stroke-miterlimit:10;}.cls-2{fill:#fff;}.cls-3{fill:#92d3ff;}.cls-4{fill:#112f60;}.cls-5{fill:#c6c5c4;}.cls-6{fill:#d63c3c;}.cls-7{fill:#fecfa5;}.cls-8{fill:#5787d3;}.cls-9{fill:#fff6cf;}.cls-10{fill:#9e2a2a;}.cls-11{fill:#ff7d7d;}.cls-12{fill:#9e9e9e;}.cls-13{fill:#d67d76;}.cls-14{fill:#c9c9c9;}.cls-15{fill:#3b629b;}.cls-16,.cls-17,.cls-18{font-size:233.14px;font-family:Jokerman-Regular, Jokerman;}.cls-16{fill:#ff0;}.cls-17{stroke-linejoin:round;}.cls-18{fill:#f9cf21;}</style></defs><circle class="cls-1" cx="504.82" cy="542.48" r="488"/><circle class="cls-2" cx="504.82" cy="542.48" r="488"/><circle class="cls-3" cx="504.82" cy="542.48" r="460"/><path class="cls-4" d="M937,1405.25a501.45,501.45,0,1,1,195.79-39.53A499.88,499.88,0,0,1,937,1405.25Zm0-976c-260.81,0-473,212.19-473,473s212.19,473,473,473,473-212.18,473-473S1197.81,429.25,937,429.25Z" transform="translate(-432.18 -359.77)"/><path class="cls-2" d="M1132.12,845c-4.44,5.86-12,16.06-21.34,29.81,5.06-12.29,8.18-23.68,8.85-32.95a11.11,11.11,0,0,1,3.54-1.66C1125.39,841.44,1128.43,843.1,1132.12,845Z" transform="translate(-432.18 -359.77)"/><path class="cls-5" d="M659.19,774.25c-57.93-33.32-26.72-15.53-52.51-30.55.57-1.62,2.18-6.46,3.22-7.49.17,0,45.8,26.52,46.89,27.1C662.28,766.87,662.34,766.9,659.19,774.25Z" transform="translate(-432.18 -359.77)"/><path class="cls-2" d="M854.15,1081.58c-1.31,8-5.49,12.78-7.68,12.41-4.24-.69-5.71-16,.66-24.16.8-1,2.45-2.69,3.71-2.48C853,1067.71,855.47,1073.57,854.15,1081.58Z" transform="translate(-432.18 -359.77)"/><path class="cls-5" d="M679.44,724.14c-.31,3-1.75,6.56-2.94,9.85-16-4.41-28-8-37.24-10.81-43-13.12-36.51-6.91-39.23-10.76-2.48-3.4-2.67-5.69-.77-8.77,1.72-2.79,4-3.55,7.43-2.5C628.13,707.79,677.62,723.62,679.44,724.14Z" transform="translate(-432.18 -359.77)"/><path class="cls-6" d="M512.38,1121.94c-13.18,32.13-17.63,44.67-27.65,73-.08.1-3.49,13-17.57,13.68a18.33,18.33,0,0,1-17.39-26.55c9.79-20,19.92-41.47,28.65-63.82C494.28,1123.3,502.56,1124.71,512.38,1121.94Z" transform="translate(-432.18 -359.77)"/><path class="cls-7" d="M529.71,1092.19c-4.41,6.11-12.15,7.12-20.53,9.84a48.54,48.54,0,0,1-5.38,1.44h0a28.84,28.84,0,0,1-5.69-.67c-.11,0-35.43-12.35-35.53-12.41-5.45-3-3.53-2.15-4.91-3-1.23-7.68.84-25.36,4.12-33.95,13.43,8.19,38.2,22.57,49.21,24.27a47.21,47.21,0,0,0,7.08.5,76,76,0,0,0,11.77-1C530.72,1084.09,530.73,1090.28,529.71,1092.19Z" transform="translate(-432.18 -359.77)"/><path class="cls-7" d="M546.68,1040.33c-2.57,15.4-10.77,18.26-11.91,18.58-10.42,1.21-10.89,4.56-21.29,3-6.93-1.06-28.64-13.12-44.93-23.11-.77-30.5,14.71-35.7,15.2-36.43l29.46,16.2c12.84,22,30.53,21.72,30.74,21.82A22.61,22.61,0,0,0,546.68,1040.33Z" transform="translate(-432.18 -359.77)"/><path class="cls-7" d="M543.1,965.06c-9.92,7.27-23.54,17.56-30.66,27.55a27.3,27.3,0,0,0-3.07,5.55l-26.28-14.45c-2.76-5.1-2.24-6.36-2.34-7a10.57,10.57,0,0,1,.83-3.4c2-5.48,15.53-30.49,21.38-30.19C510,944.2,537.14,961.27,543.1,965.06Z" transform="translate(-432.18 -359.77)"/><path class="cls-5" d="M526.58,874.8l-18.05,49.13a20.57,20.57,0,0,0-8.89-.54c-5.54.86-10.37,3.78-14.48,7.63-1.23-4.64-.62-1.22,22.59-72.65,6.57,2.51,7.89,2.76,15.7,5.58C524,865.56,525.19,869.41,526.58,874.8Z" transform="translate(-432.18 -359.77)"/><path class="cls-5" d="M568.69,840.14c-5.61-.84-12.34.85-13.91,7.13-1.36,5.44,2.12,9.29,7.08,11.91-2.15,5.78-2.42,7.29-7.58,5.87-11.74-3.23-44.7-15.5-45.51-15.81-9.5-3.67-11.08-3.14-9.68-9.16.19-.81.68-1.91,1-3.33.48-2.38.69-2.35,2.3-2.1,5.89.89,10.1-3.31,11-5.73,1.46-4.13-1.76-9.55-5.89-12,1.21-4.26,2.31-7.13,4.9-9.11,6.76.48,12.95,4.32,20.09,6.94,6.22,2.27,12.52,4.65,18.62,7C575.07,830.75,572.68,827.64,568.69,840.14Z" transform="translate(-432.18 -359.77)"/><path class="cls-5" d="M676.18,715.14c-38.12-12.09-50.71-16.14-67.24-21.27-15.27-4.71-24.94,14.24-13.41,24.86a42.07,42.07,0,0,0-6.88,8.33c-1.12,1.86-4,5.35-3.55,10-27.81-7.45-37.38-8.44-38.78-8.73.79-1.6,1.77-2.93,2.73-5,6-12.52,10.94-22.95,16.43-33.5,9.76-18.8,32-25.56,50.91-19.08C649.2,682.06,660.18,695.37,676.18,715.14Z" transform="translate(-432.18 -359.77)"/><path class="cls-6" d="M656.76,779.92c-21.65,50.39-24.58,57.34-58.64,138.11L589,939.58c-10.5-1.25-22.11,5.28-30.75,11.46-5.85-3.79-11.73-7.47-17.72-11.07.95-5.59,2.28-14.31,2.29-20.66.08-21.37-6.5-50.32-6.82-50.71,32.1,11.43,29.18,7.72,42.28-29,6.38-17.85-6.44-19.54-24.12-26.24-6.12-2.31-12.46-4.71-18.71-7-6.71-2.45-13.5-6.59-21.72-7.39-3.69-4.64-7.76-8.3-9.82-12.69-11.23-22.29,4.3-52.7,37.51-49.78a482.56,482.56,0,0,1,60.83,12C607,751,652.15,777.23,656.76,779.92Z" transform="translate(-432.18 -359.77)"/><path class="cls-7" d="M1447.79,1140.51c-.54,7-16.65,50.68-80.11,88.16-46.28,27.33-106.53,47.94-107.14,48.14l-3.74,1.27-1.86,3.49c-.29.54-25.77,54.11-113.68,59.21-13.55-.24-12.16-13.58-11.5-14.5-30.5-7.5-17.1-31.46-17-31.5-6.27-.31-12.48-6.58-21.33-27.31a8.14,8.14,0,0,1-1-2.47c-1-4.48,5.1-12,8.36-16.72a21.39,21.39,0,0,0-13.48,1.16c-1.71-3.78-7.11-27.79-1.72-34.49,9.77-12.14,41.33-10.64,56.2-24.67a42.9,42.9,0,0,0-9.75-2.39c7.94-6.86,20.53-15.12,30.21-16.73.32,0,7.88-.64,34.22,21.57a473.3,473.3,0,0,1,34.61,32.71l49.34-72.94c24.71-31.81,61.47-45.69,101.87-49.72-24.94-10.4-59.13-2.49-82.83,11.12a196.37,196.37,0,0,1,16.49-21c24.45-27.39,55.23-46.13,55.57-46.38,69.44,82.57,60.18,72.58,69.26,81C1445.41,1133.75,1448.09,1136.65,1447.79,1140.51Z" transform="translate(-432.18 -359.77)"/><path class="cls-8" d="M1122.54,1353.74a484.23,484.23,0,0,1-94.87,28.1,490.71,490.71,0,0,1-90.67,8.41q-18,0-35.78-1.29-19.22-1.39-38-4.25c-1.18-17.37-2.55-33.53-3.51-46.75-3.22-40.19-2.79-55.41-2.78-55.41.4-59,10.05-51-4.23-107.12-11.08-43.45-11.05-53.83-11.3-55.21l26.26,1.59,5,.31a443.82,443.82,0,0,1,8.17-51.87c15.95-.12,91.61-.59,132.69,1.61l-14.39,54.38,4.74,2,1.21.51c13.37,5.53,32.81,9.68,48.72,8.32-2.57,16.08-4.43,32.22-5.53,48.11l-.34,4.93,4.25,2.51a68.89,68.89,0,0,0,18,7.13,20,20,0,0,0-1.54,1.4l-.47.49-.35.43-1,1.32-.24.38c-8.56,14-5.42,45.35,8.07,56.36-2.64,6.83-.4,12.46.09,15.4,3,12,7.7,23.9,19.1,29.54-.67,10.28,2.81,24.29,18.39,33A22.78,22.78,0,0,0,1122.54,1353.74Z" transform="translate(-432.18 -359.77)"/><path class="cls-7" d="M820.66,1129c-12.38,20.73-45.25,79.79-54.28,94.06-7.19,11.37-9.25,23.4-15.8,25-8.18,2-59.43-6.75-113.94-54.2-19.63-17.08-42.2-44.2-57.48-62.65a24.92,24.92,0,0,0,5.6-4c-16.25-3.75-32-5.6-53.5-16,15.32-8.06,16.94-19.42,14.32-37.79l.21-.07-.4-1.2c0-.21-.06-.43-.1-.64,4.83-2.91,10.83-8.4,14.58-18.58,6.53,12.32,16.94,25.37,30.39,28.83-12.06-16-16.74-30-21.8-49.56,7.6-5.25,15.06-14.67,14.8-23.44-7.74,8.05-27.62,19.44-36.61,18.5a15.57,15.57,0,0,1-8.86-3.24c-6.64-4.56-12.17-13.24-13.49-19.76,2-4.08,10.7-11.51,14.23-14.4,1.29-1,16.12-13.89,43-29.27,11-4.34,23.94,17.86,28.92,28.53,7.81,17.4,10.29,36.34,9.66,55.4a156.92,156.92,0,0,1-2.91,25.36c76.2,49.51,97.78,56.77,126.37,93.33,2.11,2.7,4.19,5.56,6.65,8.55,5.26-23.51-12.77-43.66-30.42-59.14l12.56-23.35C749.93,1104.53,777.65,1120.53,820.66,1129Z" transform="translate(-432.18 -359.77)"/><path class="cls-2" d="M883.48,913.08c-32.79,54.23-56.2,124.63-60,196.11-38.51-7.76-68.71-23.08-87.72-44.59a84.52,84.52,0,0,1-16.52-27.24c13.65-9.89,47.08-35.41,59.12-56,14.38-24.66,57-63.31,74.78-64.05C862.44,916.89,873.34,915.14,883.48,913.08Z" transform="translate(-432.18 -359.77)"/><path class="cls-8" d="M868.42,1070.37h.12c-3.66,17.54-5.67,31.63-6.6,39.08l-22.34-1.36q.25-4.35.6-8.62c7.56,6.74,19.15-.15,21.85-16.6,3-18.23-7.58-27.48-16.85-21.93,10.95-61,36.27-118.06,60.72-153.12,3.36-.88,6.08-1.63,8-2.16.71,1.8,1.45,3.69,2.18,5.66C890.93,947.7,875.24,1026.64,868.42,1070.37Z" transform="translate(-432.18 -359.77)"/><path class="cls-8" d="M1178.44,862.81a593.41,593.41,0,0,0-43.34,68.08c-23.6,42.82-54.67,110.61-69.62,191.55-18.22,6.86-42,.13-52-3.36,7.59-28.7,12.25-54.75,43-118.68,37.41-77.79,80.62-135.66,90.48-148.46A215,215,0,0,0,1178.44,862.81Z" transform="translate(-432.18 -359.77)"/><path class="cls-2" d="M1051.16,1095.58a18.24,18.24,0,0,1-4.42,9.52c-1.06,1.11-3.2,2.91-5.67,2.5s-3.91-2.79-4.56-4.18a19.6,19.6,0,0,1,3.27-20c1-1,2.8-2.56,5-2.56a4.37,4.37,0,0,1,.72.06C1049.18,1081.57,1052.44,1087.73,1051.16,1095.58Z" transform="translate(-432.18 -359.77)"/><path class="cls-2" d="M949.07,1005.36a193.69,193.69,0,0,1-33.81-13.58c6.35,6.93,17.85,15.61,30.92,21.44,17.2,7.64,33.77,10.09,57.24,5.27a148.23,148.23,0,0,0,31.89-10.68c-7,15.43-13.81,31.52-20,48.12-37.68-2.08-103.44-1.89-128.07-1.73,4.18-23.66,16.61-86.86,35.5-122.94a240.72,240.72,0,0,1,9.07,45c2.58,1.62,14.67,13.36,43.4,13.36,10.87,0,23.94-2.09,39.34-7.82,20-7.46,39.39-23.36,55.93-42.42-8.6,15.09-17.39,31.5-25.93,48.94a162.37,162.37,0,0,1-43.94,17.86C979.43,1011.31,966.73,1010.4,949.07,1005.36Z" transform="translate(-432.18 -359.77)"/><path class="cls-6" d="M1031.09,525.09c-12.92,17.86-33.6,38.49-55.48,40.06-33.78,3.77-226.32-42.79-265.35,14.63A347.43,347.43,0,0,1,768.94,569c-.84,7.83-1.56,15.7-2.05,23.68a270.55,270.55,0,0,1-32.66,2c-25-.18-36.29-5-38.68-9.61.36-1.53,4.38-12.52,47.56-36.18C768.39,535,793.93,524.09,794.18,524c8.85-3.77,5.52-4.31,35.37-9a525.08,525.08,0,0,1,76.37-6.32C940.91,508.36,985.26,511.77,1031.09,525.09Z" transform="translate(-432.18 -359.77)"/><path class="cls-6" d="M1128.26,469.78c0,11.63-1.75,49-3.18,77.56l-1.92-.11-.06,1a352.33,352.33,0,0,0-85.68-38.05c1.11-19.34,4.56-84.23,1.59-94.12-1-3.32-3.73-7-24.86-12.12-27.76-6.76-95.55-16.43-152.89-5.5,26.1-10.08,60.36-18.3,103.08-18.66,74.34-.64,119,32.49,138.92,52.28C1122.34,451,1128.26,466.33,1128.26,469.78Z" transform="translate(-432.18 -359.77)"/><path class="cls-2" d="M1025.59,506.85c-2.57-.67-5.15-1.33-7.75-2-35.18-8.49-73.05-12.59-112.53-12.23a522.5,522.5,0,0,0-105,11.47V439.27C823.47,416,869.52,404,930.14,405.6c48.48,1.28,89.63,10.75,97.62,15.21C1029,429.86,1027.69,469.51,1025.59,506.85Z" transform="translate(-432.18 -359.77)"/><path class="cls-7" d="M1077.26,736.78c-3.53,8.46-3.63,18.73,3,25,7.6,26.58,2.57,9.12,23.27,80.67-1.82,16.63-13.35,42.57-29.6,66.18-20,29-43.66,50.23-65,58.16-30.53,11.38-49,6.19-57.93,1.51-4-31.84-14.52-60.78-21.81-77.85,38.07-11.32,91-37.66,112.9-70.93a55.88,55.88,0,0,0,7.63-16.23c-27,36.65-123.88,77.42-165.07,76.52-3.06-.07-12.21-.75-13.15-3.66,0,0-1.45-4.19-3.34-9.27-33.52-89.7-73.71-116.9-67.64-152.93,1.92-11.2,6.21-23.74,7.33-34.89.63-6.92,0-12.26-3.92-21.82-5.93-14-10.46-21.27-13.43-28.38,2.07-5.21,9.37-22.61,16.13-25.35,7.55-3.06,24.53,4.43,33.62,14.82l1,1.46s0-.09,0-.24c.16.19.32.39.47.59-.15-.24-.3-.48-.44-.72.42-2.43,4.66-17.17,1.93-22.63a10.83,10.83,0,0,0-.87-1.08l-4.13,13.08V592.2c-7.27-5-19-8.88-25.4-11.37l-.29-.11c-11.75-4.54-12.65-3.3-26.08,22.65.12-8.46,1-19.59,2.7-35.34,43.13-.57,91.65,6.57,136.14,12.37a137.75,137.75,0,0,1-19.41,5.74,50.56,50.56,0,0,0,4.34,10.64c-3.85-3.08-8.86-7.32-11-9.13.91,1.9,10.47,22.21,18.84,23.54,11.74-10.16,41.71-24.48,54.34-27.05,1.36-.07,2.72-.18,4.07-.31,2.31.76,19.85,7.12,31.73,22.95,3-1,12-10,12-10s-7.48-10.42-16.76-20.88c12.28-6.48,24.5-17.45,37.26-35.33,5.77,19,25.69,90.46,14.5,135.21,32-3,37-13,37-13a38.86,38.86,0,0,1,1.68-11.66c4.77-4.28,6-5.4,6.27-5.6l0,0,0,0h0c9.15-7.91,23.24-15.42,33.47-8.92,23,14.23,13,70.66-10.18,97-19,18.71-34.34,20.23-37.09,19C1081.74,750.41,1079.05,741.93,1077.26,736.78Z" transform="translate(-432.18 -359.77)"/><path class="cls-2" d="M846.26,644.11c-7-8.33-25-9.33-25-9.33l-17,22s7,19,15,27,31,6,31,6l.67-33.33-4.67-12.34" transform="translate(-432.18 -359.77)"/><path class="cls-2" d="M965.26,611.78c-24-1-49,26-49,31,0,2.11,2,7.22,4.21,12.44a35.49,35.49,0,0,0,26.48,21,112.8,112.8,0,0,0,19.31,1.55c27,0,34-30,34-30l-9-27Z" transform="translate(-432.18 -359.77)"/><ellipse class="cls-8" cx="404.58" cy="302.01" rx="12.97" ry="18.41"/><circle class="cls-8" cx="534.58" cy="286.51" r="20.5"/><path class="cls-2" d="M869.56,788.06c26-2.78,50.68-10,69.87-20.67,16.38-9.06,28.38-20.34,35.53-33.21-2.38,9.35-6.26,21.14-12.43,28.55,6.34-2.55,11.49-9.33,14.76-15.4-6.44,25.89-16,40.53-24.26,48.77-18.22,18.22-52.87,16.63-68.61,16.71-.83-2-2.47-6.95-.87-8.42C895,802.32,907.8,796.15,915.2,790,885.4,796.49,876.52,802.85,869.56,788.06Z" transform="translate(-432.18 -359.77)"/><path d="M991.1,1540.22l0-.06,0,.07Z" transform="translate(-432.18 -359.77)"/><path class="cls-2" d="M1396,1023.05a46.39,46.39,0,0,1-4.15,19l-5.6-6.66c2.65-1.81,5.32-3.66,8-5.59-1.78,0-14.72-.19-35,10.19-34.07,17.41-65.49,53-84,83-1.22,1.87-2.39,3.53-4.81,6.63-4.78-.8-12.19-1.87-16-2.64-9.71-35-50.75-105.72-85.72-134.64,14.27,25.51,28.64,57.4,40.16,84.41-10.36,14.34-34.64,49.59-43.82,76.94-17.29-3.55-50.51,19.43-58.22,33.65-11,.42-29-.34-42.25-6.19,1.26-15.81,3.29-31.85,6-47.8,2.24-.89,3.12-1.39,5.5-2.49.76-2.5,11.84-89.46,69.29-193.85,21.23-38.56,40.27-64,46.1-71.54,25.88,3.23,46-5,75.12,4.38,53.93,17.45,43,63.42,60.76,90C1333.32,968.65,1377.84,1007.42,1396,1023.05Z" transform="translate(-432.18 -359.77)"/><path class="cls-9" d="M546.26,965.78c-22-8-35-8-39-5s-17,30-17,30l-18-9,25-51,40,18Z" transform="translate(-432.18 -359.77)"/><path class="cls-9" d="M524.26,1012.78c8-12,56-45,64-41s30,26,35,49c9-37-37-71-37-71l-30,13-42,35Z" transform="translate(-432.18 -359.77)"/><path class="cls-9" d="M494.26,1005.78c-4,1-18,31-15,45-7-2-19-9-19-9l9-38,10-8Z" transform="translate(-432.18 -359.77)"/><path class="cls-9" d="M473.26,1054.78s-7,35-6,46a44.61,44.61,0,0,1-21-9l6-46Z" transform="translate(-432.18 -359.77)"/><path class="cls-9" d="M588.26,971.78c22,23,23,81,18,108,26,13,80,43,104,68s25,26,25,26-8-30-38-56-69-57-69-57l4-54-27-41Z" transform="translate(-432.18 -359.77)"/><path class="cls-9" d="M1094.26,650.78c11-9,28-12,37-4s12,64-11,96c18-10,32-48,32-48l3-42-19-26h-17l-25,13Z" transform="translate(-432.18 -359.77)"/><path class="cls-9" d="M1091.26,1249.78c-2-15-5-28,3-31s48-16,55-24,14-11,22-8,54,32,54,32-47-53-63-54-47.67,25-47.67,25l-38.33,16-3,26,6,28Z" transform="translate(-432.18 -359.77)"/><path class="cls-9" d="M1229.26,1225.78c22-31,57-72,78-84s40-24,69-33c-40,1-77,13-77,13l-34,33-37,53Z" transform="translate(-432.18 -359.77)"/><polygon class="cls-3" points="542.08 796.01 453.08 801.01 451.08 812.01 441.08 812.01 440.08 792.01 539.08 792.01 542.08 796.01"/><path class="cls-3" d="M884.26,1175.78s2,41,2,47,1,15,12,16c-8,1-22-2-22-2l-6-21,3-40Z" transform="translate(-432.18 -359.77)"/><path class="cls-3" d="M901.22,1389c-23.65-43.15-13-146.18-13-146.18s-8-1-13-13-2.67-69-2.67-69l-4.94-39-.39-3-34-6,16,97-5,50,8.7,119.88a75,75,0,0,1,11.5,5.23Q882.63,1387.61,901.22,1389Z" transform="translate(-432.18 -359.77)"/><path class="cls-3" d="M925.26,906.78s-23,28-46,76c-16.27,34-23,62-39,94-2-21,16-80,20-90s37-87,37-87Z" transform="translate(-432.18 -359.77)"/><path class="cls-10" d="M952.26,396.78s65-20,110,2c39,22,52,42,52,42a236.72,236.72,0,0,1,4,27c1,13-5,79-5,79l-79-31-3-98-20-8Z" transform="translate(-432.18 -359.77)"/><path class="cls-10" d="M850.26,506.78c37,2,101,11,112,22-27-6-65-6-65-6s49,9,59,20c-3,11-40,15-96,14,57,10,110,20,131.5,15s52.5-50,52.5-50l-49-12-107-9Z" transform="translate(-432.18 -359.77)"/><path class="cls-10" d="M773.26,558.78c-44,5-57,11-63,21s28,21,45,22,19-5,19-5Z" transform="translate(-432.18 -359.77)"/><path class="cls-11" d="M693.26,592.78c4-11,24-24,47.5-29.5s48.5-6.5,48.5-6.5-18-5-16-11,44-31,44-31l-34,5-94,49Z" transform="translate(-432.18 -359.77)"/><path class="cls-11" d="M741.26,562.78s-28,9-31,17,26,20,26,20l-43-7v-10l25-21Z" transform="translate(-432.18 -359.77)"/><path class="cls-2" d="M660.26,693.78c-24-17-63-21-73-10s-26,51-26,51l-23-3.67,36-59.33,26-11,38,7Z" transform="translate(-432.18 -359.77)"/><path class="cls-2" d="M569.26,828.11l-52-13.33-5,9-8-5,6-18s45,16.67,46,17.33S569.26,828.11,569.26,828.11Z" transform="translate(-432.18 -359.77)"/><path class="cls-12" d="M501.26,865.78c1,1,18,9,18,9l-11,49,26-50-10-14-22-4Z" transform="translate(-432.18 -359.77)"/><path class="cls-11" d="M619.26,755.78s-62-7-76-5-33,7-25,40c-11-3-21-17-18-33s28-26,28-26h23l49,12Z" transform="translate(-432.18 -359.77)"/><path class="cls-2" d="M487.26,936.78c1-2,27-80,27-80l-9-5-31,81Z" transform="translate(-432.18 -359.77)"/><path class="cls-13" d="M797.26,652.78c12-16,20-24,28-23s85,6,97-3,49-21,61-9.5,68-58.5,68-58.5l-10-30s-24,38-54,43-179-13-179-13l-31,5-1,56Z" transform="translate(-432.18 -359.77)"/><path class="cls-13" d="M989.26,614.78c13,14,16,46,11,63s17,16,26,42,0,62-14,89-70,65-70,65l74-34,16-12s43,43,50,78c20-30,30-67,30-67l-22-82,30-14s13-31,1-44-10-25,5-22c0-9-10-40-42-23-17,4-20,0-20,0l-7-102-23,12Z" transform="translate(-432.18 -359.77)"/><path class="cls-13" d="M930.26,909.78s32-3,63-19,63-63,63-63l-14-8-64,40-64,28Z" transform="translate(-432.18 -359.77)"/><path class="cls-13" d="M1288.26,1125.78s66-34,92-23c12,18,31,59-138,146-43-3-50-21-69-21s-62,20-64,28,7,28,15,28c0,13,4,29,16,29,0,14,8,33,42,25s70-34,81-52c36-16,105-32,147-72s50-78,50-78l-86-96s-33,16-58,41S1288.26,1125.78,1288.26,1125.78Z" transform="translate(-432.18 -359.77)"/><path class="cls-13" d="M723.26,1095.78s26,62,85,76c16-32,23-50,23-50l-42-13-53-33Z" transform="translate(-432.18 -359.77)"/><path class="cls-13" d="M779.26,1136.78s-26,76-39,83c-9.52,5.13-99-33-167-88-17,1-7-2-7-2s23,50,77,80,83,53,110,46,54-76,54-76l6-28Z" transform="translate(-432.18 -359.77)"/><path class="cls-13" d="M532.26,1117.78s24,1,30-12-2-32-2-32l10-10-10-21-20,25-6,26-15,20Z" transform="translate(-432.18 -359.77)"/><path class="cls-13" d="M498.26,1111.78s15-23,16-40v-5s8-31,14-37c-4-11,3-6,3-6s47-40,57-32,9,30,0,39-7,33,2,51c-14-12-30-39-30-39l-20,25-5,33-21,13Z" transform="translate(-432.18 -359.77)"/><path class="cls-13" d="M873.93,729.45c10.33-2.67,14.33-34.67,12.33-42.67,9,9,22,35,19,44-8.66,26-65,8-31.33-1.33" transform="translate(-432.18 -359.77)"/><polygon class="cls-14" points="681.08 473.01 674.08 531.01 712.08 479.01 681.08 473.01"/><path class="cls-14" d="M1108.26,1002.78c23-38,74-80,97-77s29,14,35,52,40,111,56,125c19-22,78-63,78-63l21,19,13-43-76-68s-13-72-42-84-101-5-101-5l-37,56Z" transform="translate(-432.18 -359.77)"/><path class="cls-14" d="M1217.26,1074.78l-31-58-18-25s8,54,10,72c-7-23-18-30-18-30,0,64.74-11.17,92.35-22.54,103.71-3.45,3.45-55.17,31.93-53.46-63.71l-13,50-7,5-10,59,54,6,19.5-15.5,1.33-2.42c12-7.36,27-15.64,33.17-15.08,11,1,10-5,10-5Z" transform="translate(-432.18 -359.77)"/><path class="cls-14" d="M986.26,1016.78s-43,35-82,41c44,8,115,6,115,6l64-137s-25,32-64,48c9,6-29,41-74,34,34,11,53,5,53,5Z" transform="translate(-432.18 -359.77)"/><path class="cls-14" d="M854.26,977.78c-17,14-38,41-43,58s-40,62-40,62l60,24,10-79Z" transform="translate(-432.18 -359.77)"/><path class="cls-15" d="M1147.26,851.78c-39,55-73,128-84,181,17-49,46-88,46-88s-39,76-56,144a23.39,23.39,0,0,1-13,23l-5,19,33-3s19-68,43-125,74-146,74-146Z" transform="translate(-432.18 -359.77)"/><path class="cls-15" d="M1130,1357.22c4.1-2.2,8-4.69,11.78-7.17l-7.41-1.35-5.06-.92-8-20-16-12-6-21-19-39-10-40,8-20-24-8,4.33-57.67-53.5-1.31-.83,0s-49,17-82,19c60,5,72,4,72,4l-2,74s6,15-22,16-31,0-31,0,43,33,58,67c9.23,20.92,19.6,47.53,30.41,73.06a484.23,484.23,0,0,0,94.87-28.1A30,30,0,0,0,1130,1357.22Z" transform="translate(-432.18 -359.77)"/><path class="cls-15" d="M1018.26,1077.78l-103,6s27,10,33,23-6,44-6,44h70l-5-27Z" transform="translate(-432.18 -359.77)"/><path class="cls-15" d="M994.26,1180.28l-76,5s20,6.5,26,10.5,9,41-20,47c46,0,50,3,58,1s10-18,10-18Z" transform="translate(-432.18 -359.77)"/><path class="cls-2" d="M1177.26,872.28s12,7.5,35,7.5,52-3,71,16,21,60,27,69,70,69,70,69l25.5-7-2.5-10-71-69s-8-64-41-80-102-13-102-13Z" transform="translate(-432.18 -359.77)"/><path class="cls-9" d="M824.59,686.78c.31,8.64-10.33,15-10.33,33s49,96,56,118,15,48,15,48l-18-1-31-71-47-76,12-64,4-16S813.26,682.78,824.59,686.78Z" transform="translate(-432.18 -359.77)"/><path class="cls-9" d="M935.26,813.78c-16,5-45,3-45,3s-17-1-19,2-9,4,0,33c-1-16,0-21,10-20s57-2,71-24C945.26,811.78,935.26,813.78,935.26,813.78Z" transform="translate(-432.18 -359.77)"/><path class="cls-9" d="M854.26,747.78c-10-2-18-13-12-17s13-7,15-14,5-33-4-62c0,26-9,55-9,55s-14,10-15,18-2,11,7,18A16.88,16.88,0,0,0,854.26,747.78Z" transform="translate(-432.18 -359.77)"/><path class="cls-9" d="M954.26,698.78c6-10,20-19,32-13s4,14-3,14S954.26,698.78,954.26,698.78Z" transform="translate(-432.18 -359.77)"/><path class="cls-3" d="M966.26,655.78q-6-3-9-3c-2,0-8,7-3,12s11,5,18,3,2-10-2-11Z" transform="translate(-432.18 -359.77)"/><path class="cls-3" d="M829.26,678.78c-3-4-2-12,2-10s4,4,7,3,6,9-1,9S829.26,678.78,829.26,678.78Z" transform="translate(-432.18 -359.77)"/><path class="cls-10" d="M519.26,1113.78l-35-2-13,12a136.69,136.69,0,0,0,18,8.13c-4.42,15.66-14.88,52-18,55.87-4,5-11,10-16,7-1,11,15,19,21,18s18-18,18-18l18.31-60.43C520.15,1125.47,519.26,1113.78,519.26,1113.78Z" transform="translate(-432.18 -359.77)"/><path class="cls-10" d="M647.26,783.78c-83.87-55.18-109-4.22-103,29,27,13,31,15,31,15l-6,26-8,17-6,1-24-7,3,16s21,6,27,15-8,58-8,58l3,9,38-20-16,3Z" transform="translate(-432.18 -359.77)"/><path class="cls-7" d="M1126.76,712.28c-.5,14.5-23.5,30.5-34.5,35.5s-15-11-15-11-6.5,3.5-5,13,28,112,28,112l12-23-22-82,28-6,15-16Z" transform="translate(-432.18 -359.77)"/><path class="cls-7" d="M1369.26,1046.78s50,71,55,81,11,12,8,21-42,81-116,110c57-16,127-82,127-82l17-41-80-87Z" transform="translate(-432.18 -359.77)"/><polygon class="cls-14" points="468.08 137.01 576.08 130.01 593.75 54.34 599.08 58.01 597.08 154.01 468.08 137.01"/><path class="cls-14" d="M869.26,787.78s31,5,68-14,41-30,41-30v-21s-4,16-24,30-47,23-47,23Z" transform="translate(-432.18 -359.77)"/><path class="cls-9" d="M856.76,758.78l-2.5,23,7,3s35-4.33,51-10.67a135.38,135.38,0,0,0,29-16.33s-49,16-77,15C860.29,772.64,856.76,758.78,856.76,758.78Z" transform="translate(-432.18 -359.77)"/><path class="cls-4" d="M1444.5,1105c-5-6.17-23.5-28.18-39-46.64,12.88-18.94,10.31-40.32,10.18-41.32l-.5-3.8c-.11-.1-65.32-56.25-71.1-64.46-13.9-20.85-6.33-77-71.24-98-36-11.65-60-.72-84.91-6.25-25.58-5.69-48.72-18.22-55.21-21.92a19.59,19.59,0,0,0-15-1.7l-17.34-55.37c24.12-4.91,42-22.19,53-44.29,13.26-27.49,13.87-58.29,6.61-76.72-5-10.13-11.14-18.46-21.79-22.62.62-8.16,1.66-22.48,2.74-38.7l2.24.12c.2-3.81,5-93.5,5-113.54,0-12.72-12.42-33.58-30.92-51.92-22.17-22-71.51-58.77-153.16-58.08-120.86,1-178.77,60.58-181.17,63.12l-2.75,2.89v82.46c-26.68,11.91-92.94,43.11-103.11,68.84-7.56,19.09,9.32,44.62,89.32,35.77.37,8.46,1.38,11.24,1.46,11.81,5.83,21,19.79,41.21,19.84,48.28.84,7.92-4.66,23.25-7.13,37.6-7.86,47.25,37.52,76.89,73,171.07.37.5,2.19,9.52,14.52,13.93a140.13,140.13,0,0,1-15.86,1.74c-29.21,1.22-76.6,48.89-91.22,74-10.54,18.08-46.18,45-59,53.8l-5.2,3.58,1,6.23c.13.79,3.18,18.9,19.9,39.41L704,1099.91c-19.25-14.32-43.62-29.11-65-40.29,4.56-41.65-4.8-88.49-35.89-113.17l9.42-22.34C648.28,839.35,649.68,836,674.64,778c6.36-14.79-.47-21.84-8.79-27.24-7.77-5.05-45.29-20.92-49.93-22.89,61.71,22.55,59.85,24.66,67.52,21.13,5.85-2.67,6.86-7.08,8.33-11.15,3-8.27,7.07-19.59-3-32-18.37-22.28-30.62-37.16-67.29-49.73-26.14-9-56.46.89-69.86,26.66C549.36,687,532.07,721.92,532,722c-40.69,2.35-62.28,49.77-34.78,81.65-2.39,4.18-3.38,8.48-4.56,12.66a9.31,9.31,0,0,0,.23,6.31c-3.05,2-5.89,5.6-7.12,11.78-3.41,10.26-.88,18.6,6.93,23.56l-21,63.18a23.35,23.35,0,0,0,3.64,21.9c-10.91,16.64-13.42,26-13.47,26.15-2,6.1-1.74,13.48,2.79,22.42-12,11.45-16.3,28.6-16.16,45.37-9.74,10.53-15.46,51.58-7.17,62.17l1.46,1.68c5.56,5.25,13.8,9.09,20.91,12-6.89,17-11.84,29.24-28,62.28a34.35,34.35,0,0,0,6.44,39.32c16.57,16.69,48,12,57.08-13.6,12.4-35.12,21.82-58.93,26.75-71,9.8,4.47,20.24,6,30.93,5.87,18.35,22,43.24,52.88,66.59,73.21,54,47,112.79,63.28,131.9,58.52,18-4.5,20.83-22.62,27.88-33.76,7.24-11.45,27.44-47.44,42.54-73.82,1.34,7,2.79,13.94,4.22,20.75,9.34,44.11,5,43.56,5.45,47.74-8.77,61.82-2.25,97.53,2.1,154.73,8.42,2,17.11,2.52,25.74,3.43-1.21-18.09-2.65-34.94-3.64-48.63-3.22-40.19-2.79-55.41-2.78-55.41.4-59,10.05-51-4.23-107.12-11.08-43.45-11.05-53.83-11.3-55.21l31.28,1.9a443.82,443.82,0,0,1,8.17-51.87c15.95-.12,91.61-.59,132.69,1.61l-14.39,54.38,4.74,2c13.39,5.78,33.53,10.23,49.93,8.83-2.57,16.08-4.43,32.22-5.53,48.11l-.34,4.93,4.25,2.51a68.89,68.89,0,0,0,18,7.13,20,20,0,0,0-1.54,1.4l-.47.49-.35.43-1,1.32-.24.38c-8.56,14-5.42,45.35,8.07,56.36-2.64,6.83-.4,12.46.09,15.4,3,12,7.7,23.9,19.1,29.54-.67,10.28,2.81,24.29,18.39,33,2.3,14.31,16.82,21.6,30.66,20.6,15.67,1,47.53-7.87,62.1-13.71,40.13-16.11,59.41-41.15,65.47-50.46,13.8-4.88,65.27-23.77,107.41-48.66,64.83-38.28,88.56-86.49,89.89-103.84C1469.16,1123.52,1452.83,1115.13,1444.5,1105ZM1119.63,841.84a11.11,11.11,0,0,1,3.54-1.66c2.22,1.26,5.26,2.92,8.95,4.8-4.44,5.86-12,16.06-21.34,29.81C1115.84,862.5,1119,851.11,1119.63,841.84ZM964.34,379.78c74.34-.64,119,32.49,138.92,52.28,19.08,18.91,25,34.27,25,37.72,0,11.63-1.75,49-3.18,77.56l-1.92-.11-.06,1a352.33,352.33,0,0,0-85.68-38.05c1.11-19.34,4.56-84.23,1.59-94.12-1-3.32-3.73-7-24.86-12.12-27.76-6.76-95.55-16.43-152.89-5.5C887.36,388.36,921.62,380.14,964.34,379.78ZM800.26,439.27C823.47,416,869.52,404,930.14,405.6c48.48,1.28,89.63,10.75,97.62,15.21,1.2,9.05-.07,48.7-2.17,86-2.57-.67-5.15-1.33-7.75-2-35.18-8.49-73.05-12.59-112.53-12.23a522.5,522.5,0,0,0-105,11.47Zm-33.37,153.4a270.55,270.55,0,0,1-32.66,2c-25-.18-36.29-5-38.68-9.61.36-1.53,4.38-12.52,47.56-36.18C768.39,535,793.93,524.09,794.18,524c8.85-3.77,5.52-4.31,35.37-9a525.08,525.08,0,0,1,76.37-6.32c35-.29,79.34,3.12,125.17,16.44-12.92,17.86-33.6,38.49-55.48,40.06-33.78,3.77-226.32-42.79-265.35,14.63A347.43,347.43,0,0,1,768.94,569C768.1,576.82,767.38,584.69,766.89,592.67Zm33.67,121.27c1.92-11.2,6.21-23.74,7.33-34.89.63-6.92,0-12.26-3.92-21.82-5.93-14-10.46-21.27-13.43-28.38,2.07-5.21,9.37-22.61,16.13-25.35,7.55-3.06,24.53,4.43,33.62,14.82l1,1.46s0-.09,0-.24c.16.19.32.39.47.59-.15-.24-.3-.48-.44-.72.42-2.43,4.66-17.17,1.93-22.63a10.83,10.83,0,0,0-.87-1.08l-4.13,13.08V592.2c-7.27-5-19-8.88-25.4-11.37l-.29-.11c-11.75-4.54-12.65-3.3-26.08,22.65.12-8.46,1-19.59,2.7-35.34,43.13-.57,91.65,6.57,136.14,12.37a137.75,137.75,0,0,1-19.41,5.74,50.56,50.56,0,0,0,4.34,10.64c-3.85-3.08-8.86-7.32-11-9.13.91,1.9,10.47,22.21,18.84,23.54,11.74-10.16,41.71-24.48,54.34-27.05,1.36-.07,2.72-.18,4.07-.31,2.31.76,19.85,7.12,31.73,22.95,3-1,12-10,12-10s-7.48-10.42-16.76-20.88c12.28-6.48,24.5-17.45,37.26-35.33,5.77,19,25.69,90.46,14.5,135.21,32-3,37-13,37-13a38.86,38.86,0,0,1,1.68-11.66c4.77-4.28,6-5.4,6.27-5.6l0,0,0,0h0c9.15-7.91,23.24-15.42,33.47-8.92,23,14.23,13,70.66-10.18,97-19,18.71-34.34,20.23-37.09,19-4.72-2.21-7.41-10.69-9.2-15.84-3.53,8.46-3.63,18.73,3,25,7.6,26.58,2.57,9.12,23.27,80.67-1.82,16.63-13.35,42.57-29.6,66.18-20,29-43.66,50.23-65,58.16-30.53,11.38-49,6.19-57.93,1.51-4-31.84-14.52-60.78-21.81-77.85,38.07-11.32,91-37.66,112.9-70.93a55.88,55.88,0,0,0,7.63-16.23c-27,36.65-123.88,77.42-165.07,76.52-3.06-.07-12.21-.75-13.15-3.66,0,0-1.45-4.19-3.34-9.27C834.68,777.17,794.49,750,800.56,713.94ZM656.79,763.31c5.49,3.56,5.55,3.59,2.4,10.94-57.93-33.32-26.72-15.53-52.51-30.55.57-1.62,2.18-6.46,3.22-7.49C610.07,736.23,655.7,762.73,656.79,763.31Zm-50.18-36.75c-5.05,1.71-7.08,6.88-9.07,12.51-2.25-2-2.37-3-2.37-3.09a7.2,7.2,0,0,1,1.36-2.46c4.34-6.26,6.17-8.91,10.27-8.91,4.65,0,5.6,1.5,6,1.83A10.67,10.67,0,0,0,606.61,726.56ZM676.5,734c-16-4.41-28-8-37.24-10.81-43-13.12-36.51-6.91-39.23-10.76-2.48-3.4-2.67-5.69-.77-8.77,1.72-2.79,4-3.55,7.43-2.5,21.44,6.64,70.93,22.47,72.75,23C679.13,727.16,677.69,730.7,676.5,734ZM549.05,723.41c6-12.52,10.94-22.95,16.43-33.5,9.76-18.8,32-25.56,50.91-19.08,32.81,11.23,43.79,24.54,59.79,44.31-38.12-12.09-50.71-16.14-67.24-21.27-15.27-4.71-24.94,14.24-13.41,24.86a42.07,42.07,0,0,0-6.88,8.33c-1.12,1.86-4,5.35-3.55,10-27.81-7.45-37.38-8.44-38.78-8.73C547.11,726.77,548.09,725.44,549.05,723.41Zm-7.59,13.09a482.56,482.56,0,0,1,60.83,12c4.75,2.51,49.86,28.71,54.47,31.4-21.65,50.39-24.58,57.34-58.64,138.11L589,939.58c-10.5-1.25-22.11,5.28-30.75,11.46-5.85-3.79-11.73-7.47-17.72-11.07.95-5.59,2.28-14.31,2.29-20.66.08-21.37-6.5-50.32-6.82-50.71,32.1,11.43,29.18,7.72,42.28-29,6.38-17.85-6.44-19.54-24.12-26.24-6.12-2.31-12.46-4.71-18.71-7-6.71-2.45-13.5-6.59-21.72-7.39-3.69-4.64-7.76-8.3-9.82-12.69C492.72,764,508.25,733.58,541.46,736.5ZM499.09,840.08c.19-.81.68-1.91,1-3.33.48-2.38.69-2.35,2.3-2.1,5.89.89,10.1-3.31,11-5.73,1.46-4.13-1.76-9.55-5.89-12,1.21-4.26,2.31-7.13,4.9-9.11,6.76.48,12.95,4.32,20.09,6.94,6.22,2.27,12.52,4.65,18.62,7,24,9.09,21.63,6,17.64,18.48-5.61-.84-12.34.85-13.91,7.13-1.36,5.44,2.12,9.29,7.08,11.91-2.15,5.78-2.42,7.29-7.58,5.87-11.74-3.23-44.7-15.5-45.51-15.81C499.27,845.57,497.69,846.1,499.09,840.08Zm32.71,94.75a157.58,157.58,0,0,0-14.94-7.8l13.24-36C533,907.55,534.11,920.91,531.8,934.83Zm-24-76.46c6.57,2.51,7.89,2.76,15.7,5.58.53,1.61,1.74,5.46,3.13,10.85l-18.05,49.13a20.57,20.57,0,0,0-8.89-.54c-5.54.86-10.37,3.78-14.48,7.63C483.93,926.38,484.54,929.8,507.75,858.37Zm-26.17,115c2-5.48,15.53-30.49,21.38-30.19,7,1.06,34.18,18.13,40.14,21.92-9.92,7.27-23.54,17.56-30.66,27.55a27.3,27.3,0,0,0-3.07,5.55l-26.28-14.45c-2.76-5.1-2.24-6.36-2.34-7A10.57,10.57,0,0,1,481.58,973.33Zm2.17,29,29.46,16.2c12.84,22,30.53,21.72,30.74,21.82a22.61,22.61,0,0,0,2.73,0c-2.57,15.4-10.77,18.26-11.91,18.58-10.42,1.21-10.89,4.56-21.29,3-6.93-1.06-28.64-13.12-44.93-23.11C467.78,1008.26,483.26,1003.06,483.75,1002.33Zm1,192.59c-.08.1-3.49,13-17.57,13.68a18.33,18.33,0,0,1-17.39-26.55c9.79-20,19.92-41.47,28.65-63.82,15.86,5.07,24.14,6.48,34,3.71C499.2,1154.07,494.75,1166.61,484.73,1194.92Zm45-102.73c-4.41,6.11-12.15,7.12-20.53,9.84a48.54,48.54,0,0,1-5.38,1.44h0a28.84,28.84,0,0,1-5.69-.67c-.11,0-35.43-12.35-35.53-12.41-5.45-3-3.53-2.15-4.91-3-1.23-7.68.84-25.36,4.12-33.95,13.43,8.19,38.2,22.57,49.21,24.27a47.21,47.21,0,0,0,7.08.5,76,76,0,0,0,11.77-1C530.72,1084.09,530.73,1090.28,529.71,1092.19Zm236.67,130.88c-7.19,11.37-9.25,23.4-15.8,25-8.18,2-59.43-6.75-113.94-54.2-19.63-17.08-42.2-44.2-57.48-62.65a24.92,24.92,0,0,0,5.6-4c-16.25-3.75-32-5.6-53.5-16,15.32-8.06,16.94-19.42,14.32-37.79l.21-.07-.4-1.2c0-.21-.06-.43-.1-.64,4.83-2.91,10.83-8.4,14.58-18.58,6.53,12.32,16.94,25.37,30.39,28.83-12.06-16-16.74-30-21.8-49.56,7.6-5.25,15.06-14.67,14.8-23.44-7.74,8.05-27.62,19.44-36.61,18.5a15.57,15.57,0,0,1-8.86-3.24c-6.64-4.56-12.17-13.24-13.49-19.76,2-4.08,10.7-11.51,14.23-14.4,1.29-1,16.12-13.89,43-29.27,11-4.34,23.94,17.86,28.92,28.53,7.81,17.4,10.29,36.34,9.66,55.4a156.92,156.92,0,0,1-2.91,25.36c76.2,49.51,97.78,56.77,126.37,93.33,2.11,2.7,4.19,5.56,6.65,8.55,5.26-23.51-12.77-43.66-30.42-59.14l12.56-23.35c17.53,15.24,45.25,31.24,88.26,39.72C808.28,1149.74,775.41,1208.8,766.38,1223.07Zm57.14-113.88c-38.51-7.76-68.71-23.08-87.72-44.59a84.52,84.52,0,0,1-16.52-27.24c13.65-9.89,47.08-35.41,59.12-56,14.38-24.66,57-63.31,74.78-64.05,9.26-.38,20.16-2.13,30.3-4.19C850.69,967.31,827.28,1037.71,823.52,1109.19Zm44.9-38.82h.12c-3.66,17.54-5.67,31.63-6.6,39.08l-22.34-1.36q.25-4.35.6-8.62c7.56,6.74,19.15-.15,21.85-16.6,3-18.23-7.58-27.48-16.85-21.93,10.95-61,36.27-118.06,60.72-153.12,3.36-.88,6.08-1.63,8-2.16.71,1.8,1.45,3.69,2.18,5.66C890.93,947.7,875.24,1026.64,868.42,1070.37Zm-21.29-.54c.8-1,2.45-2.69,3.71-2.48,2.19.36,4.63,6.22,3.31,14.23s-5.49,12.78-7.68,12.41C842.23,1093.3,840.76,1078,847.13,1069.83Zm40.11-15.63c4.18-23.66,16.61-86.86,35.5-122.94a240.72,240.72,0,0,1,9.07,45c2.58,1.62,14.67,13.36,43.4,13.36,10.87,0,23.94-2.09,39.34-7.82,20-7.46,39.39-23.36,55.93-42.42-8.6,15.09-17.39,31.5-25.93,48.94a162.37,162.37,0,0,1-43.94,17.86c-21.18,5.15-33.88,4.24-51.54-.8a193.69,193.69,0,0,1-33.81-13.58c6.35,6.93,17.85,15.61,30.92,21.44,17.2,7.64,33.77,10.09,57.24,5.27a148.23,148.23,0,0,0,31.89-10.68c-7,15.43-13.81,31.52-20,48.12C977.63,1053.85,911.87,1054,887.24,1054.2Zm126.21,64.88c7.59-28.7,12.25-54.75,43-118.68,37.41-77.79,80.62-135.66,90.48-148.46a215,215,0,0,0,31.51,10.87,593.41,593.41,0,0,0-43.34,68.08c-23.6,42.82-54.67,110.61-69.62,191.55C1047.26,1129.3,1023.49,1122.57,1013.45,1119.08Zm51.18,62c1.26-15.81,3.29-31.85,6-47.8,2.24-.89,3.12-1.39,5.5-2.49.76-2.5,11.84-89.46,69.29-193.85,21.23-38.56,40.27-64,46.1-71.54,25.88,3.23,46-5,75.12,4.38,53.93,17.45,43,63.42,60.76,90,5.88,8.82,50.4,47.59,68.53,63.22a46.39,46.39,0,0,1-4.15,19l-5.6-6.66c2.65-1.81,5.32-3.66,8-5.59-1.78,0-14.72-.19-35,10.19-34.07,17.41-65.49,53-84,83-1.22,1.87-2.39,3.53-4.81,6.63-4.78-.8-12.19-1.87-16-2.64-9.71-35-50.75-105.72-85.72-134.64,14.27,25.51,28.64,57.4,40.16,84.41-10.36,14.34-34.64,49.59-43.82,76.94-17.29-3.55-50.51,19.43-58.22,33.65C1095.92,1187.7,1077.84,1186.94,1064.63,1181.09Zm176-33.87c4.9,2.08,12.26,2.64,17.59,2.89l-31.91,47.18c-12.13-11.61-28.81-26.39-43-35.33,5.58-18.35,22-44.94,34.66-63.45,12.73,30.9,13.78,35.53,13.83,35.64C1231.6,1139.19,1234.39,1144.46,1240.68,1147.22Zm207.11-6.71c-.54,7-16.65,50.68-80.11,88.16-46.28,27.33-106.53,47.94-107.14,48.14l-3.74,1.27-1.86,3.49c-.29.54-25.77,54.11-113.68,59.21-13.55-.24-12.16-13.58-11.5-14.5-30.5-7.5-17.1-31.46-17-31.5-6.27-.31-12.48-6.58-21.33-27.31a8.14,8.14,0,0,1-1-2.47c-1-4.48,5.1-12,8.36-16.72a21.39,21.39,0,0,0-13.48,1.16c-1.71-3.78-7.11-27.79-1.72-34.49,9.77-12.14,41.33-10.64,56.2-24.67a42.9,42.9,0,0,0-9.75-2.39c7.94-6.86,20.53-15.12,30.21-16.73.32,0,7.88-.64,34.22,21.57a473.3,473.3,0,0,1,34.61,32.71l49.34-72.94c24.71-31.81,61.47-45.69,101.87-49.72-24.94-10.4-59.13-2.49-82.83,11.12a196.37,196.37,0,0,1,16.49-21c24.45-27.39,55.23-46.13,55.57-46.38,69.44,82.57,60.18,72.58,69.26,81C1445.41,1133.75,1448.09,1136.65,1447.79,1140.51Z" transform="translate(-432.18 -359.77)"/><path class="cls-4" d="M1083,1215.27l-.28.23S1082.84,1215.38,1083,1215.27Z" transform="translate(-432.18 -359.77)"/><path class="cls-4" d="M972.26,604.78c-24-4-52,9-60,43,0,1,8-2,8-2,9-17,29-32,53-26s23,34,23,34,6.35-1.07,7-4C1005.26,640.78,1004.21,610.11,972.26,604.78Z" transform="translate(-432.18 -359.77)"/><path class="cls-4" d="M965.3,675.37c-3.66.1-7.35,0-11.09,0s-7.52-.15-11.45-.07a40,40,0,0,0,11,4,49,49,0,0,0,11.68,1.12,36.51,36.51,0,0,0,11.73-2.12,19.89,19.89,0,0,0,9.6-7,39.88,39.88,0,0,1-10.63,3.16A81.14,81.14,0,0,1,965.3,675.37Z" transform="translate(-432.18 -359.77)"/><path class="cls-4" d="M836.76,639.78c-8.56,0-15.5,9.85-15.5,22s6.94,22,15.5,22,15.5-9.85,15.5-22S845.32,639.78,836.76,639.78Zm0,40.41c-7.16,0-13-8.24-13-18.41s5.81-18.41,13-18.41,13,8.24,13,18.41S843.92,680.19,836.76,680.19Z" transform="translate(-432.18 -359.77)"/><ellipse class="cls-4" cx="404.58" cy="302.01" rx="8.54" ry="12.12"/><path class="cls-4" d="M824.42,672.11s1.27-10.78,8.23-9.88,9.49,3.59,9.49,3.59,7.59,1.8,6.33,7.19c5.06-7.19,3.16-33.23-12-30.53-9.49-1.8-14.55,13.46-13.28,21.55Z" transform="translate(-432.18 -359.77)"/><path class="cls-2" d="M848.47,655.05c0,4.46-2.41,8.08-5.38,8.08s-5.38-3.62-5.38-8.08,2.41-8.08,5.38-8.08S848.47,650.58,848.47,655.05Z" transform="translate(-432.18 -359.77)"/><path class="cls-4" d="M851.31,647.83c0-.91.2-2.11.24-3.19-5.21-5.78-17-17.6-26.79-18.36-11.2-.86-23.13,13.86-26.87,20.51-.15-.3-.29-.6-.45-.9,1.07,6.56,5.2,13,8.82,18.89,1.14-7.21,5.48-21.22,18.5-26.5,6,1,15,1,25,14a3,3,0,0,0,2.23-.19A18.56,18.56,0,0,1,851.31,647.83Z" transform="translate(-432.18 -359.77)"/><path class="cls-4" d="M846.26,690.78c1.09-1.27.09-2.6,1-4-12,3-22-1-28.5-3.5C821.65,687.78,832.26,694.78,846.26,690.78Z" transform="translate(-432.18 -359.77)"/><path class="cls-4" d="M966.76,621.78a24.5,24.5,0,1,0,24.5,24.5A24.5,24.5,0,0,0,966.76,621.78Zm0,45a20.5,20.5,0,1,1,20.5-20.5A20.5,20.5,0,0,1,966.76,666.78Z" transform="translate(-432.18 -359.77)"/><circle class="cls-4" cx="534.58" cy="286.51" r="13.5"/><path class="cls-4" d="M947.26,657.78s2-12,13-11,15,4,15,4,12,2,10,8c8-8,5-37-19-34-15-2-23,15-21,24Z" transform="translate(-432.18 -359.77)"/><ellipse class="cls-2" cx="544.58" cy="279.01" rx="8.5" ry="9"/><path d="M1100.17,645.56Z" transform="translate(-432.18 -359.77)"/><path class="cls-4" d="M1092.49,702.43a46.14,46.14,0,0,0,5.33,1.94c4.51,1.44,4.67,1.94,5.27,2.24.07.08.22.15.29.25,2.46,2.15-2.27,12.7-3.62,16.42,11.82-6.39,18-18.49,7.72-26.31a34.58,34.58,0,0,0-7.71-4.2,34.64,34.64,0,0,1,6.07-7.45c6.17-5.62,12.47-9,20.92-8-13-13.43-40.17,3.09-39.75,17.66C1086.93,700.36,1093.19,702.79,1092.49,702.43Zm5-10.81.09.06-.09,0S1097.48,691.62,1097.48,691.62Z" transform="translate(-432.18 -359.77)"/><path class="cls-4" d="M897.66,737.86c12.31-3.49,9.72-20.22-.9-22.58,3.5,11.5,2.74,17.58-8,22A13.37,13.37,0,0,0,897.66,737.86Z" transform="translate(-432.18 -359.77)"/><path class="cls-4" d="M882.76,731.28c1.5-7.5-12.5-1.5-19,3C870.35,741.92,881.6,737.65,882.76,731.28Z" transform="translate(-432.18 -359.77)"/><path class="cls-4" d="M867.76,749.28c-14.68-3.21-27.86-4.12-33.31-9.85-8.43-8.54,1.55-15,8.69-22,4.34-4.31,5.21-7.28,5.17-7.18l1-2.32c8.94-23.35,7.94-53.18,1.46-72.68,1.8,44.51-11.25,72-11.21,71.9-3.14,7.33-27,19.58-11.06,37.74C838.77,756.58,859.15,756.46,867.76,749.28Z" transform="translate(-432.18 -359.77)"/><path d="M847.85,787.5h0S847.82,787.53,847.85,787.5Z" transform="translate(-432.18 -359.77)"/><path class="cls-4" d="M897.49,821.27c72.87,2,84.61-39.15,95.15-102.27a25.63,25.63,0,0,1,9.34,6.43c1.5-6.95-6-17.83-19.28-19.45-11-1.35-20.83,4.48-24.47,13,3.46-.87,8.39-2.6,14.62-3.17-8.49,38.64-60.36,60.05-108.94,64.15a50.13,50.13,0,0,1-5.85.15l-1.8-23.33c-7.16,27.77-8.25,30.51-8.41,30.72a57.19,57.19,0,0,0,13.78,1.21c2.85,9.24,8.57,14.06,14.32,15.5a18.44,18.44,0,0,0,1,9.22c-8.45,1.69-11.83,7.26-9.86,13.85C872.18,818.55,873.12,820.66,897.49,821.27Zm-27.93-33.21c26-2.78,50.68-10,69.87-20.67,16.38-9.06,28.38-20.34,35.53-33.21-2.38,9.35-6.26,21.14-12.43,28.55,6.34-2.55,11.49-9.33,14.76-15.4-6.44,25.89-16,40.53-24.26,48.77-18.22,18.22-52.87,16.63-68.61,16.71-.83-2-2.47-6.95-.87-8.42C895,802.32,907.8,796.15,915.2,790,885.4,796.49,876.52,802.85,869.56,788.06Z" transform="translate(-432.18 -359.77)"/><path class="cls-4" d="M1046.74,1073.07c-4.44-.73-9.08,1-12.74,4.86a27.52,27.52,0,0,0-4.74,28.89c2.25,4.78,6.08,8,10.52,8.68a13,13,0,0,0,2,.16,15.07,15.07,0,0,0,10.77-5,26.08,26.08,0,0,0,6.53-13.76h0C1061,1085,1055.6,1074.52,1046.74,1073.07Zm4.42,22.51a18.24,18.24,0,0,1-4.42,9.52c-1.06,1.11-3.2,2.91-5.67,2.5s-3.91-2.79-4.56-4.18a19.6,19.6,0,0,1,3.27-20c1-1,2.8-2.56,5-2.56a4.37,4.37,0,0,1,.72.06C1049.18,1081.57,1052.44,1087.73,1051.16,1095.58Z" transform="translate(-432.18 -359.77)"/><path class="cls-4" d="M868.58,1226.5a19.49,19.49,0,0,0,18.68,18.93c96.92,3.8,90.88,3.58,91.61,3.58a19.45,19.45,0,0,0,19.43-19l2.09-82.55L866.46,1145Zm119.72,3.29a9.45,9.45,0,0,1-9.82,9.21l-90.82-3.56a9.49,9.49,0,0,1-9.09-9.2l-1.23-47.68,112.2,2.09Zm1.83-72.48-.33,13.35-112.72-2.11-.35-13.38Z" transform="translate(-432.18 -359.77)"/><circle class="cls-5" cx="193.58" cy="436.51" r="9.5"/><path class="cls-4" d="M634.6,804.46a11.42,11.42,0,1,0-16.15-.06A11.43,11.43,0,0,0,634.6,804.46Zm-3.54-12.58a6.37,6.37,0,0,1,0,9c-.07.07-.16.12-.23.18l-4.31-11A6.34,6.34,0,0,1,631.06,791.88Zm-9.2.24L626,802.64a6.29,6.29,0,0,1-4.11-10.52Z" transform="translate(-432.18 -359.77)"/><polygon class="cls-8" points="691.08 216.01 683.08 262.01 671.08 221.01 661.08 276.01 650.08 231.01 644.08 258.01 625.08 181.01 642.08 228.01 647.08 199.01 659.08 238.01 670.08 201.01 681.08 231.01 691.08 216.01"/><text class="cls-16" transform="translate(50.43 1086.05)">Into Car</text><text class="cls-17" transform="translate(60.43 1096.05)">Into Car</text><text class="cls-17" transform="translate(50.43 1086.05)">Into Car</text><text class="cls-18" transform="translate(50.43 1086.05)">Into Car</text></svg>